<svg width="189" height="146" viewBox="0 0 189 146" fill="none" xmlns="http://www.w3.org/2000/svg">
<g clip-path="url(#clip0_1126_20692)">
<g clip-path="url(#clip1_1126_20692)">
<path d="M171.508 31.3315C179.153 31.3315 185.35 25.2242 185.35 17.6904C185.35 10.1567 179.153 4.04932 171.508 4.04932C163.863 4.04932 157.665 10.1567 157.665 17.6904C157.665 25.2242 163.863 31.3315 171.508 31.3315Z" fill="white"/>
<path d="M171.508 4.04902C179.153 4.04902 185.35 10.1563 185.35 17.6901C185.35 25.2239 179.153 31.3313 171.508 31.3313C163.863 31.3313 157.665 25.2239 157.665 17.6901C157.665 10.1563 163.863 4.04902 171.508 4.04902ZM171.508 3.26953C163.439 3.26953 156.874 9.73854 156.874 17.6901C156.874 25.6417 163.439 32.1107 171.508 32.1107C179.577 32.1107 186.141 25.6417 186.141 17.6901C186.141 9.73854 179.577 3.26953 171.508 3.26953Z" fill="#00398A"/>
<path d="M164.305 22.3258H178.713V23.5613H164.305V22.3258ZM168.533 20.2835V21.519H171.274V20.2835H170.459V16.4367H171.274V15.2013H168.533V16.4367H169.344V20.2835H168.533ZM171.507 9.39014L164.305 13.5721V14.3945H178.713V13.5721L171.507 9.39014ZM174.956 20.2835V21.519H177.697V20.2835H176.886V16.4367H177.697V15.2013H174.956V16.4367H175.77V20.2835H174.956ZM171.744 20.2835V21.519H174.485V20.2835H173.67V16.4367H174.485V15.2013H171.744V16.4367H172.559V20.2835H171.744ZM165.321 20.2835V21.519H168.058V20.2835H167.247V16.4367H168.058V15.2013H165.321V16.4367H166.132V20.2835H165.321Z" fill="#7F47EE"/>
<path d="M16.6567 51.2202C24.3017 51.2202 30.4992 45.1129 30.4992 37.5791C30.4992 30.0453 24.3017 23.938 16.6567 23.938C9.01172 23.938 2.81421 30.0453 2.81421 37.5791C2.81421 45.1129 9.01172 51.2202 16.6567 51.2202Z" fill="white"/>
<path d="M16.6565 23.9357C24.3015 23.9357 30.499 30.0431 30.499 37.5769C30.499 45.1106 24.3015 51.218 16.6565 51.218C9.01144 51.218 2.81395 45.1106 2.81395 37.5769C2.81395 30.0431 9.01144 23.9357 16.6565 23.9357ZM16.6565 23.1562C8.58747 23.1562 2.02295 29.6253 2.02295 37.5769C2.02295 45.5285 8.58747 51.9975 16.6565 51.9975C24.7255 51.9975 31.29 45.5285 31.29 37.5769C31.29 29.6253 24.7255 23.1562 16.6565 23.1562Z" fill="#00398A"/>
<path d="M24.4056 32.4888H8.90753C8.58119 32.4888 8.31665 32.7495 8.31665 33.0711V42.1845C8.31665 42.5061 8.58119 42.7668 8.90753 42.7668H24.4056C24.7319 42.7668 24.9965 42.5061 24.9965 42.1845V33.0711C24.9965 32.7495 24.7319 32.4888 24.4056 32.4888Z" fill="#FFBE28"/>
<path d="M24.9965 34.1187H8.31665V35.8487H24.9965V34.1187Z" fill="#222222"/>
<path d="M20.416 36.9424H9.67188V38.0555H20.416V36.9424Z" fill="#DFECF7"/>
<path d="M23.6414 36.9424H21.4009V38.0555H23.6414V36.9424Z" fill="#DFECF7"/>
<path d="M169.344 95.8921C176.989 95.8921 183.187 89.7848 183.187 82.251C183.187 74.7172 176.989 68.6099 169.344 68.6099C161.699 68.6099 155.502 74.7172 155.502 82.251C155.502 89.7848 161.699 95.8921 169.344 95.8921Z" fill="white"/>
<path d="M169.344 68.6076C176.989 68.6076 183.187 74.7149 183.187 82.2487C183.187 89.7825 176.989 95.8898 169.344 95.8898C161.699 95.8898 155.502 89.7825 155.502 82.2487C155.502 74.7149 161.699 68.6076 169.344 68.6076ZM169.344 67.8281C161.275 67.8281 154.711 74.2971 154.711 82.2487C154.711 90.2003 161.275 96.6693 169.344 96.6693C177.413 96.6693 183.978 90.2003 183.978 82.2487C183.978 74.2971 177.413 67.8281 169.344 67.8281Z" fill="#00398A"/>
<path d="M178.466 79.2832H163.753V87.3478H178.466V79.2832Z" fill="#4C4D4F"/>
<path d="M174.916 76.9487H160.202V85.0134H174.916V76.9487Z" fill="#4DBC15"/>
<path d="M167.424 83.2001C169.578 83.2001 171.324 82.1641 171.324 80.8862C171.324 79.6082 169.578 78.5723 167.424 78.5723C165.269 78.5723 163.523 79.6082 163.523 80.8862C163.523 82.1641 165.269 83.2001 167.424 83.2001Z" fill="#A5DC89"/>
<path d="M75.9005 77.0669L73.2803 82.7576L71.465 90.4328C71.3424 90.9512 71.6295 91.4789 72.1357 91.6652C73.2847 92.0881 74.5783 91.8188 75.456 90.9742L76.4589 90.0084L75.9005 77.0669Z" fill="#B97F46"/>
<path d="M72.6167 73.8028L69.9261 81.9957C69.7114 82.6493 70.0574 83.3535 70.7108 83.5932L71.0335 83.7117C72.2224 84.1478 73.5568 83.9276 74.5369 83.1341L75.901 82.0296V70.2476L72.6171 73.8032L72.6167 73.8028Z" fill="#B97F46"/>
<path d="M75.9001 61.5205L73.5963 62.1815C72.8156 62.4052 72.1958 62.9914 71.936 63.7506L69.0544 72.1762C68.8032 72.9101 69.179 73.7087 69.9094 73.9943C70.9409 74.3977 72.114 74.2145 72.9682 73.5165L75.9001 71.1211V61.5209V61.5205Z" fill="#B97F46"/>
<path d="M75.9003 51.1264H71.5355C70.1675 51.1264 69.0098 52.1229 68.8263 53.4586C68.6808 54.5164 69.1771 55.5675 70.1058 56.1171C71.2856 56.8155 73.1871 57.7045 75.8999 58.2899V51.126L75.9003 51.1264Z" fill="#B97F46"/>
<path d="M108.131 20.8774H80.0328C77.7507 20.8774 75.9006 22.7006 75.9006 24.9495V87.7735C75.9006 90.0224 77.7507 91.8455 80.0328 91.8455H108.131C110.413 91.8455 112.263 90.0224 112.263 87.7735V24.9495C112.263 22.7006 110.413 20.8774 108.131 20.8774Z" fill="#4C4D4F"/>
<path d="M107.718 22.5068H80.4459C78.8483 22.5068 77.5532 23.7831 77.5532 25.3574V87.3668C77.5532 88.9412 78.8483 90.2174 80.4459 90.2174H107.718C109.315 90.2174 110.61 88.9412 110.61 87.3668V25.3574C110.61 23.7831 109.315 22.5068 107.718 22.5068Z" fill="white"/>
<path d="M97.3882 91.8473C99.4151 93.8448 104.672 97.8494 110.602 100.219C111.882 100.731 112.865 101.775 113.292 103.068L127.94 147.341H159.971L128.863 90.7214C128.635 87.755 128.197 84.8081 127.551 81.9022L124.719 69.1528C124.458 67.9801 123.958 66.872 123.247 65.8969L121.224 63.1203L119.856 52.5921C119.592 50.5565 119.881 48.4877 120.694 46.5986L122.953 41.3507C123.176 40.8319 122.82 40.25 122.25 40.2029C119.63 39.9854 117.067 41.0646 115.438 43.0975C114.412 44.377 113.268 45.9945 112.264 47.8692V62.5283L110.552 67.5202C109.408 70.8544 109.104 74.414 109.681 77.8874C110.3 81.6079 111.224 86.134 112.264 87.7749C112.264 90.0237 110.414 91.8469 108.132 91.8469H97.3882V91.8473Z" fill="#B97F46"/>
<path d="M120.528 147.375C120.528 147.375 115.813 123.184 114.74 111.057L134.741 98.9932L163.626 147.375H120.528Z" fill="#75B0E5"/>
<path d="M53.8731 82.679L52.7408 78.769L51.6085 82.679C51.3091 83.7126 50.4892 84.5205 49.4403 84.8156L45.4727 85.9314L49.4403 87.0473C50.4892 87.3423 51.3091 88.1502 51.6085 89.1838L52.7408 93.0938L53.8731 89.1838C54.1725 88.1502 54.9924 87.3423 56.0412 87.0473L60.0089 85.9314L56.0412 84.8156C54.9924 84.5205 54.1725 83.7126 53.8731 82.679Z" fill="#75B0E5"/>
<path d="M136.806 55.6891L136.035 53.0283L135.265 55.6891C135.061 56.3926 134.503 56.9425 133.789 57.1433L131.089 57.9029L133.789 58.6625C134.503 58.8632 135.061 59.4131 135.265 60.1166L136.035 62.7774L136.806 60.1166C137.01 59.4131 137.568 58.8632 138.282 58.6625L140.982 57.9029L138.282 57.1433C137.568 56.9425 137.01 56.3926 136.806 55.6891Z" fill="#75B0E5"/>
<path d="M87.8638 7.0574L87.2461 4.92432L86.6283 7.0574C86.4649 7.62136 86.0176 8.06216 85.4453 8.22313L83.2808 8.83191L85.4453 9.44069C86.0176 9.60166 86.4649 10.0425 86.6283 10.6064L87.2461 12.7395L87.8638 10.6064C88.0272 10.0425 88.4745 9.60166 89.0468 9.44069L91.2113 8.83191L89.0468 8.22313C88.4745 8.06216 88.0272 7.62136 87.8638 7.0574Z" fill="#75B0E5"/>
<path d="M104.279 33.8047H83.8853V44.1178H104.279V33.8047Z" fill="#E8F1F9"/>
<path d="M105.81 36.355H82.3555V48.2153H105.81V36.355Z" fill="#CFE5F6"/>
<path d="M107.4 38.9121H80.7634V52.3821H107.4V38.9121Z" fill="#9CC8ED"/>
<path d="M93.8375 50.0098C97.7376 50.0098 100.899 48.1343 100.899 45.8208C100.899 43.5073 97.7376 41.6318 93.8375 41.6318C89.9375 41.6318 86.7759 43.5073 86.7759 45.8208C86.7759 48.1343 89.9375 50.0098 93.8375 50.0098Z" fill="#CFE5F6"/>
<path d="M94.0822 64.9479C98.8944 64.9479 102.795 61.1036 102.795 56.3614C102.795 51.6192 98.8944 47.7749 94.0822 47.7749C89.27 47.7749 85.3689 51.6192 85.3689 56.3614C85.3689 61.1036 89.27 64.9479 94.0822 64.9479Z" fill="#00398A"/>
<path d="M92.8327 60.6386C92.6049 60.6386 92.3878 60.5415 92.2371 60.372L88.5281 56.1923L89.7193 55.1661L92.809 58.6481L98.0094 52.314L99.239 53.2946L93.4469 60.3494C93.3002 60.5283 93.0807 60.6339 92.8469 60.6386C92.8418 60.6386 92.8378 60.6386 92.8327 60.6386Z" fill="white"/>
<path d="M56.9894 46.9845L56.6097 46.8949C56.4001 46.8442 56.1826 46.969 56.1312 47.1794C56.0758 47.3899 56.2063 47.6003 56.4199 47.651L56.7996 47.7446C56.8312 47.7523 56.8628 47.7562 56.8945 47.7562C57.0724 47.7562 57.2346 47.6354 57.2781 47.4561C57.3295 47.2496 57.203 47.0391 56.9894 46.9845ZM54.3198 46.3415L53.9361 46.2479C53.7265 46.1973 53.5129 46.3259 53.4615 46.5324C53.4062 46.7429 53.5367 46.9534 53.7502 47.004L54.1299 47.0976C54.1616 47.1054 54.1932 47.1093 54.2248 47.1093C54.4028 47.1093 54.565 46.9884 54.6085 46.8131C54.6599 46.6026 54.5333 46.3921 54.3198 46.3415ZM51.6501 45.6945L51.2665 45.6009C51.0569 45.5503 50.8433 45.6789 50.7919 45.8855C50.7365 46.0959 50.867 46.3064 51.0806 46.3571L51.4603 46.4506C51.4919 46.4584 51.5236 46.4623 51.5552 46.4623C51.7332 46.4623 51.8953 46.3415 51.9388 46.1661C51.9903 45.9556 51.8637 45.7452 51.6501 45.6945ZM43.6413 43.7575L43.2576 43.6639C43.048 43.6132 42.8344 43.7419 42.7791 43.9484C42.7276 44.1589 42.8582 44.3694 43.0717 44.42L43.4514 44.5136C43.4831 44.5214 43.5147 44.5253 43.5463 44.5253C43.7243 44.5253 43.8865 44.4044 43.93 44.229C43.9814 44.0186 43.8509 43.8081 43.6413 43.7575ZM40.9716 43.1105L40.588 43.0169C40.3784 42.9663 40.1648 43.0949 40.1094 43.3053C40.058 43.5119 40.1885 43.7224 40.4021 43.7769L40.7818 43.8666C40.8134 43.8744 40.8451 43.8783 40.8767 43.8783C41.0547 43.8783 41.2168 43.7613 41.2603 43.5821C41.3118 43.3716 41.1812 43.1611 40.9716 43.1105ZM38.302 42.4635L37.9184 42.3739C37.7087 42.3232 37.4952 42.4479 37.4398 42.6584C37.3884 42.8649 37.5189 43.0793 37.7325 43.13L38.1122 43.2196C38.1438 43.2274 38.1754 43.2313 38.2071 43.2313C38.3851 43.2313 38.5472 43.1144 38.5907 42.9351C38.6421 42.7285 38.5116 42.5142 38.302 42.4635ZM35.6324 41.8165L35.2487 41.7269C35.0352 41.6762 34.8216 41.8048 34.7702 42.0114C34.7188 42.2218 34.8493 42.4323 35.0628 42.483L35.4425 42.5765C35.4742 42.5843 35.5058 42.5882 35.5374 42.5882C35.7154 42.5882 35.8776 42.4674 35.9211 42.2881C35.9725 42.0815 35.842 41.8711 35.6324 41.8165ZM32.9627 41.1734L32.5791 41.0799C32.3695 41.0292 32.1559 41.1578 32.1005 41.3644C32.0491 41.5749 32.1796 41.7853 32.3932 41.836L32.7729 41.9295C32.8045 41.9373 32.8362 41.9412 32.8678 41.9412C33.0458 41.9412 33.2079 41.8204 33.2515 41.645C33.3029 41.4346 33.1724 41.2241 32.9627 41.1734ZM49.38 45.5476L44.84 46.1552L45.8826 42.6307L49.3796 45.5476H49.38Z" fill="#00398A"/>
<path d="M128.48 40.0647C128.377 39.8738 128.136 39.8036 127.946 39.901L127.598 40.0842C127.404 40.1817 127.333 40.4194 127.432 40.6104C127.503 40.7429 127.641 40.8169 127.784 40.8169C127.847 40.8169 127.91 40.8014 127.97 40.7702L128.314 40.5909C128.508 40.4935 128.583 40.2557 128.48 40.0647ZM130.896 38.8059C130.798 38.6188 130.556 38.5447 130.362 38.6461L130.018 38.8253C129.825 38.9267 129.749 39.1605 129.852 39.3515C129.923 39.484 130.062 39.5581 130.204 39.5581C130.264 39.5581 130.327 39.5425 130.386 39.5152L130.734 39.3359C130.928 39.2346 130.999 38.9968 130.896 38.8059ZM133.317 37.5509C133.214 37.3599 132.977 37.2858 132.783 37.3872L132.439 37.5665C132.245 37.6678 132.17 37.9016 132.273 38.0926C132.344 38.2251 132.478 38.2992 132.621 38.2992C132.684 38.2992 132.747 38.2875 132.807 38.2563L133.151 38.077C133.345 37.9757 133.42 37.738 133.317 37.5509ZM140.574 33.7742C140.475 33.5872 140.234 33.5131 140.04 33.6144L139.696 33.7937C139.502 33.8912 139.427 34.1289 139.53 34.3199C139.601 34.4524 139.74 34.5264 139.882 34.5264C139.941 34.5264 140.005 34.5109 140.064 34.4836L140.412 34.3004C140.602 34.203 140.677 33.9652 140.574 33.7742ZM142.995 32.5193C142.892 32.3283 142.655 32.2542 142.461 32.3556L142.117 32.5348C141.923 32.6362 141.848 32.87 141.951 33.061C142.022 33.1935 142.156 33.2676 142.299 33.2676C142.362 33.2676 142.425 33.2559 142.485 33.2247L142.829 33.0454C143.022 32.9441 143.098 32.7063 142.995 32.5193ZM145.415 31.2604C145.312 31.0694 145.075 30.9953 144.881 31.0967L144.533 31.276C144.343 31.3773 144.268 31.6111 144.371 31.8021C144.442 31.9346 144.577 32.0126 144.719 32.0126C144.782 32.0126 144.846 31.997 144.905 31.9658L145.249 31.7865C145.443 31.6852 145.518 31.4513 145.415 31.2604ZM147.836 30.0015C147.733 29.8105 147.496 29.7404 147.298 29.8378L146.954 30.0171C146.76 30.1184 146.685 30.3562 146.788 30.5432C146.859 30.6758 146.997 30.7537 147.14 30.7537C147.203 30.7537 147.262 30.7381 147.322 30.7069L147.67 30.5276C147.863 30.4263 147.935 30.1925 147.836 30.0015ZM150.252 28.7426C150.153 28.5516 149.912 28.4815 149.718 28.5789L149.374 28.7621C149.18 28.8595 149.105 29.0973 149.208 29.2883C149.279 29.4208 149.418 29.4948 149.56 29.4948C149.619 29.4948 149.683 29.4792 149.742 29.4481L150.09 29.2688C150.28 29.1674 150.355 28.9336 150.252 28.7426ZM152.673 27.4837C152.57 27.2967 152.333 27.2226 152.139 27.3239L151.795 27.5032C151.601 27.6046 151.526 27.8384 151.629 28.0294C151.7 28.1619 151.834 28.2359 151.977 28.2359C152.04 28.2359 152.103 28.2243 152.162 28.1931L152.507 28.0138C152.7 27.9125 152.775 27.6747 152.673 27.4837ZM155.093 26.2287C154.99 26.0378 154.753 25.9637 154.559 26.0651L154.211 26.2443C154.017 26.3457 153.946 26.5795 154.049 26.7705C154.116 26.903 154.255 26.9771 154.397 26.9771C154.46 26.9771 154.524 26.9654 154.583 26.9342L154.927 26.7549C155.121 26.6536 155.196 26.4197 155.093 26.2287ZM157.514 24.9699C157.411 24.7789 157.173 24.7048 156.976 24.8062L156.632 24.9855C156.438 25.0868 156.363 25.3206 156.466 25.5116C156.537 25.6441 156.675 25.7221 156.817 25.7221C156.881 25.7221 156.94 25.7065 156.999 25.6753L157.347 25.496C157.541 25.3947 157.612 25.1608 157.514 24.9699ZM137.475 33.2095L139.286 36.4175L134.723 36.8189L137.475 33.2095H137.475Z" fill="#00398A"/>
<path d="M130.73 68.5561L130.362 68.4275C130.153 68.3573 129.931 68.4626 129.856 68.6652C129.785 68.8718 129.892 69.0939 130.101 69.1641L130.469 69.2927C130.513 69.3044 130.556 69.3122 130.6 69.3122C130.766 69.3122 130.916 69.2109 130.975 69.0511C131.047 68.8484 130.936 68.6262 130.73 68.5561ZM133.325 69.4486L132.957 69.32C132.751 69.2498 132.526 69.3551 132.451 69.5616C132.38 69.7643 132.49 69.9865 132.696 70.0566L133.068 70.1852C133.107 70.1969 133.155 70.2047 133.198 70.2047C133.36 70.2047 133.515 70.1034 133.57 69.9436C133.641 69.7409 133.534 69.5188 133.325 69.4486ZM135.923 70.3411L135.551 70.2125C135.346 70.1424 135.12 70.2476 135.049 70.4542C134.974 70.6568 135.085 70.879 135.29 70.9491L135.662 71.0777C135.706 71.0894 135.749 71.0972 135.793 71.0972C135.955 71.0972 136.109 70.9959 136.164 70.8361C136.236 70.6334 136.129 70.4113 135.923 70.3411ZM143.707 73.0187L143.335 72.8901C143.129 72.8199 142.904 72.929 142.833 73.1317C142.761 73.3344 142.868 73.5565 143.078 73.6267L143.446 73.7553C143.489 73.7709 143.533 73.7748 143.576 73.7748C143.738 73.7748 143.893 73.6774 143.952 73.5137C144.023 73.311 143.912 73.0888 143.707 73.0187ZM146.301 73.9112L145.933 73.7826C145.728 73.7124 145.498 73.8216 145.427 74.0242C145.356 74.2269 145.467 74.4491 145.672 74.5192L146.044 74.6478C146.084 74.6634 146.127 74.6712 146.171 74.6712C146.337 74.6712 146.487 74.5699 146.546 74.4062C146.618 74.2035 146.507 73.9814 146.301 73.9112ZM148.896 74.8037L148.528 74.6751C148.322 74.605 148.097 74.7141 148.022 74.9167C147.95 75.1194 148.061 75.3416 148.267 75.4117L148.639 75.5403C148.678 75.5559 148.726 75.5637 148.769 75.5637C148.931 75.5637 149.085 75.4624 149.141 75.2987C149.212 75.096 149.105 74.8739 148.896 74.8037ZM151.494 75.6962L151.122 75.5676C150.917 75.4975 150.691 75.6066 150.62 75.8093C150.545 76.0119 150.656 76.2341 150.861 76.3042L151.233 76.4329C151.277 76.4485 151.32 76.4562 151.364 76.4562C151.526 76.4562 151.68 76.3549 151.735 76.1951C151.807 75.9885 151.7 75.7664 151.494 75.6962ZM154.089 76.5888L153.717 76.4601C153.511 76.39 153.286 76.4991 153.214 76.7018C153.143 76.9045 153.25 77.1266 153.456 77.1968L153.828 77.3254C153.871 77.341 153.915 77.3488 153.958 77.3488C154.12 77.3488 154.274 77.2474 154.33 77.0876C154.401 76.8811 154.294 76.6589 154.089 76.5888ZM142.176 71.0676L140.864 74.5036L137.602 71.3326L142.176 71.0676H142.176Z" fill="#00398A"/>
</g>
</g>
<defs>
<clipPath id="clip0_1126_20692">
<rect width="189" height="146" fill="white"/>
</clipPath>
<clipPath id="clip1_1126_20692">
<rect width="184.919" height="146.824" fill="white" transform="translate(2 1.17578)"/>
</clipPath>
</defs>
</svg>
