<svg version="1.2" xmlns="http://www.w3.org/2000/svg" viewBox="0 0 178 40" width="178" height="40">
	<title>logo-light-svg</title>
	<style>
		.s0 { fill: #0085db } 
		.s1 { fill: #5ac8fa } 
		.s2 { fill: #ffffff } 
	</style>
	<path id="Layer" fill-rule="evenodd" class="s0" d="m153.8 29c-2 1.2-3.6 0.6-4.9-1.2-0.3-0.4-0.8-0.7-1.1-1.1-1.8-1.8-1.9-2.1-0.8-4.5 1.8-3.6 3.5-6.9 5.2-10.3 1.7-2.5 3.5-4.8 6.2-6.3 3.8-2.2 8-2.7 12.3-2 0.9 0.2 1.5 0.8 1.7 1.8 1.1 7.4-1.2 14-8.2 18.3-0.8 0.5-1.4 0.9-2.2 1.3q-4 2-8.2 4zm8.4-18.8c-0.7 1.3-0.6 2.6 0.4 3.4 0.9 0.8 2.3 0.9 3.2 0.2 1.2-0.9 1.5-2.5 0.6-3.7-1-1.3-2.7-1.3-4.2 0.1z"/>
	<path id="Layer" fill-rule="evenodd" class="s1" d="m147 22.1q2.7-5.2 5.1-10.2-0.9 0-1.8 0-1.6 0-3.1 0c-1.9-0.1-3.3 0.7-4.3 2.3q-1.7 2.7-3.2 5.4c-0.8 1.4-0.2 2.5 1.4 2.5q2.9 0 5.9 0zm13.1 3.9q-3.1 1.5-6.2 3.1 0 1 0 2-0.1 1.9 0 3.7c0 1.6 1.2 2.4 2.5 1.6q2.8-1.6 5.4-3.3c1.3-0.8 2.3-2 2.3-3.6q0.1-2.9 0.1-5.7-0.5 0.2-0.9 0.5-0.6 0.4-1.3 0.7-1 0.5-1.9 1z"/>
	<path id="Layer" fill-rule="evenodd" class="s2" d="m12.4 28.3q-1.7 0-3.1-0.6-1.4-0.6-2.3-1.7-0.9-1.1-1.2-2.7l2.8-0.4q0.3 1.4 1.4 2.2 1.1 0.7 2.6 0.7 0.8 0 1.6-0.2 0.7-0.3 1.2-0.8 0.4-0.5 0.4-1.2 0-0.4-0.1-0.6-0.1-0.3-0.3-0.5-0.2-0.3-0.5-0.4-0.4-0.2-0.8-0.4l-4.1-1.2q-0.5-0.1-1.1-0.4-0.7-0.2-1.2-0.7-0.5-0.5-0.9-1.2-0.3-0.7-0.3-1.7 0-1.5 0.7-2.6 0.8-1 2.1-1.5 1.3-0.6 2.9-0.5 1.7 0 3 0.5 1.2 0.6 2.1 1.6 0.8 1 1.2 2.5l-2.9 0.5q-0.1-0.9-0.6-1.4-0.5-0.6-1.3-0.9-0.7-0.4-1.5-0.4-0.8 0-1.5 0.3-0.6 0.2-1 0.7-0.5 0.4-0.5 1.1 0 0.5 0.4 0.9 0.4 0.4 0.9 0.6 0.5 0.2 1 0.3l2.9 0.8q0.6 0.2 1.3 0.5 0.7 0.2 1.4 0.7 0.6 0.5 1.1 1.2 0.4 0.8 0.4 2 0 1.2-0.5 2.2-0.5 0.9-1.4 1.5-0.8 0.6-2 0.9-1.1 0.3-2.3 0.3zm14.1 0q-1.8 0-2.9-0.8-0.1 0-0.2-0.1v5.9h-2.6v-17.2h2.3v0.9q0.2-0.2 0.4-0.4 1.2-0.8 2.9-0.8 1.7 0 2.9 0.8 1.2 0.8 1.9 2.2 0.7 1.5 0.7 3.3 0 1.7-0.7 3.2-0.6 1.4-1.9 2.2-1.2 0.8-2.8 0.8zm-0.4-2.3q1 0 1.7-0.6 0.7-0.5 1-1.4 0.3-0.9 0.3-1.9 0-1.1-0.3-2-0.4-0.9-1-1.4-0.7-0.5-1.8-0.5-1 0-1.7 0.5-0.6 0.4-0.9 1.3-0.3 0.9-0.3 2.1 0 1.1 0.3 2 0.3 0.9 1 1.4 0.6 0.5 1.7 0.5zm8.2-11.7v-2.4h2.7v2.4zm0 13.7v-11.9h2.6v11.9zm5.7 0l0.1-15.8h2.6v9.6l4.4-5.7h3.3l-4.6 6 5 5.9h-3.5l-4.6-5.7v5.7zm16.9 0.3q-1.8 0-3.2-0.8-1.4-0.7-2.1-2.1-0.8-1.4-0.8-3.2 0-2 0.8-3.4 0.7-1.4 2-2.2 1.4-0.8 3.1-0.8 1.9 0 3.2 0.9 1.3 0.8 1.9 2.4 0.6 1.6 0.5 3.7h-1.3v-2h-1.4q-0.2-1.2-0.7-1.8-0.6-0.9-2.1-0.9-1.6 0-2.4 1-0.5 0.7-0.7 1.7h-0.9v2h0.9q0.1 1.3 0.7 2.1 0.8 0.9 2.3 0.9 1 0 1.7-0.4 0.7-0.4 1.1-1.3l2.6 0.8q-0.7 1.6-2.1 2.5-1.4 0.9-3.1 0.9zm2.7-5.5h-5.9q-0.1-0.4-0.1-0.7 0-0.7 0.1-1.3h5.9q0 0.5 0 1zm8 5.2l5-15.8h3.8l5 15.8h-2.7l-1.1-3.4h1.1v-2.5h-1.9l-2.3-7.3-2.3 7.3h-1.8v2.5h1l-1.1 3.4zm6.9-13.2l0.3-1h-0.6zm-3.1 9.9l0.8-2.5h4.7l0.7 2.5zm16.6 3.7q-1.6 0-2.8-0.8-1.2-0.8-1.9-2.2-0.7-1.5-0.7-3.2 0-1.8 0.7-3.3 0.7-1.4 1.9-2.2 1.3-0.8 2.9-0.8 1.7 0 2.9 0.8 0 0.1 0.1 0.1v-4.5h2.7v15.8h-2.4v-0.9q-0.2 0.2-0.4 0.4-1.2 0.8-3 0.8zm0.4-2.4q1.1 0 1.8-0.4 0.6-0.5 0.9-1.4 0.3-0.9 0.3-2 0-1.2-0.3-2.1-0.3-0.9-0.9-1.3-0.6-0.5-1.7-0.5-1 0-1.7 0.5-0.7 0.5-1 1.4-0.4 0.9-0.4 2 0 1 0.3 1.9 0.4 0.9 1 1.4 0.7 0.5 1.7 0.5zm22.5 2.1v-7.2q0-1.2-0.6-1.9-0.6-0.7-1.6-0.7-0.7 0-1.2 0.3-0.5 0.3-0.8 0.8-0.3 0.6-0.3 1.4v7.3h-2.6v-7.2q0-1.2-0.6-1.9-0.6-0.7-1.7-0.7-1 0-1.6 0.7-0.6 0.7-0.6 1.8v7.3h-2.7v-11.9h2.4v1.3q0.5-0.6 1.2-1 1-0.6 2.2-0.6 1.3 0 2.2 0.6 0.8 0.5 1.3 1.3 0.5-0.9 1.4-1.4 1-0.5 2.2-0.5 2 0 3 1.2 1.1 1.2 1.1 3.1v7.9zm5.5-13.7v-2.4h2.6v2.4zm0 13.7v-11.9h2.7v11.9zm13.9 0v-5.7q0-0.6-0.1-1.3 0-0.7-0.3-1.3-0.3-0.6-0.9-1-0.5-0.4-1.5-0.4-0.5 0-1 0.1-0.4 0.2-0.9 0.6-0.3 0.4-0.6 1.1-0.2 0.7-0.2 1.8v6.1h-2.7v-11.9h2.3v1.3q0.5-0.5 1.1-0.9 1.2-0.7 2.8-0.7 1.3 0 2.2 0.4 0.9 0.5 1.4 1.1 0.5 0.7 0.7 1.5 0.3 0.8 0.3 1.5 0.1 0.6 0.1 1.1v6.6z"/>
</svg>